<svg width="891" height="902" viewBox="0 0 891 902" fill="none" xmlns="http://www.w3.org/2000/svg">
<rect x="0.176758" y="0.657715" width="890" height="900.476" rx="30" fill="#3F37C9"/>
<path d="M841.886 856.227C771.371 785.711 771.371 712.307 841.886 641.791C771.371 712.307 697.966 712.307 627.45 641.791C697.966 712.307 697.966 785.711 627.45 856.227C697.966 785.711 771.371 785.711 841.886 856.227Z" fill="#5E55FF"/>
<path d="M127.803 858.592C99.8235 830.612 99.8235 801.487 127.803 773.508C99.8235 801.487 70.698 801.487 42.7187 773.508C70.698 801.487 70.698 830.612 42.7187 858.592C70.698 830.612 99.8235 830.612 127.803 858.592Z" fill="#5E55FF"/>
<circle cx="235.465" cy="78.9802" r="16.5203" fill="#5E55FF"/>
<circle cx="804.545" cy="160.277" r="6.8418" fill="#5E55FF"/>
<circle cx="620.743" cy="800.05" r="6.8418" fill="#5E55FF"/>
<path d="M186.958 205.791C146.01 164.844 146.01 122.218 186.958 81.2703C146.01 122.218 103.385 122.218 62.4372 81.2703C103.385 122.218 103.385 164.844 62.4372 205.791C103.385 164.844 146.01 164.844 186.958 205.791Z" fill="#5E55FF"/>
<path d="M838.33 111.684C817.385 90.7382 817.385 68.9347 838.33 47.9893C817.385 68.9347 795.581 68.9347 774.636 47.9893C795.581 68.9347 795.581 90.7382 774.636 111.684C795.581 90.7382 817.385 90.7382 838.33 111.684Z" fill="#5E55FF"/>
</svg>
