<svg width="20" height="20" viewBox="0 0 20 20" fill="none" xmlns="http://www.w3.org/2000/svg">
<path d="M2.32448 14.7313C1.46648 11.2993 1.03748 9.58428 1.93848 8.43028C2.83948 7.27628 4.60848 7.27628 8.14548 7.27628H12.7755C16.3135 7.27628 18.0815 7.27628 18.9825 8.43028C19.8835 9.58428 19.4545 11.3003 18.5965 14.7313C18.0505 16.9143 17.7785 18.0053 16.9645 18.6413C16.1505 19.2763 15.0255 19.2763 12.7755 19.2763H8.14548C5.89548 19.2763 4.77048 19.2763 3.95648 18.6413C3.14248 18.0053 2.86948 16.9143 2.32448 14.7313Z" stroke="white"/>
<path d="M17.9604 7.77628L17.2505 5.17128C16.9765 4.16628 16.8394 3.66428 16.5584 3.28528C16.2783 2.90874 15.8978 2.61868 15.4604 2.44828C15.0204 2.27628 14.5004 2.27628 13.4604 2.27628M2.96045 7.77628L3.67045 5.17128C3.94445 4.16628 4.08145 3.66428 4.36245 3.28528C4.64263 2.90874 5.02314 2.61868 5.46045 2.44828C5.90045 2.27628 6.42045 2.27628 7.46045 2.27628" stroke="white"/>
<path d="M7.46045 2.27628C7.46045 2.01106 7.56581 1.75671 7.75334 1.56917C7.94088 1.38163 8.19523 1.27628 8.46045 1.27628H12.4604C12.7257 1.27628 12.98 1.38163 13.1676 1.56917C13.3551 1.75671 13.4604 2.01106 13.4604 2.27628C13.4604 2.54149 13.3551 2.79585 13.1676 2.98338C12.98 3.17092 12.7257 3.27628 12.4604 3.27628H8.46045C8.19523 3.27628 7.94088 3.17092 7.75334 2.98338C7.56581 2.79585 7.46045 2.54149 7.46045 2.27628Z" stroke="white"/>
</svg>
