<svg width="574" height="628" viewBox="0 0 574 628" fill="none" xmlns="http://www.w3.org/2000/svg">
<circle cx="286.782" cy="341.003" r="286.352" fill="#3F37C9"/>
<circle cx="72.2803" cy="473.441" r="6.47561" fill="#5E55FF"/>
<circle cx="347.436" cy="473.441" r="10.8347" fill="#5E55FF"/>
<circle cx="292.827" cy="133.036" r="22.1049" fill="#5E55FF"/>
<path d="M239.308 224.491C204.111 189.293 204.111 152.654 239.308 117.456C204.111 152.654 167.471 152.654 132.274 117.456C167.471 152.654 167.471 189.293 132.274 224.491C167.471 189.293 204.111 189.293 239.308 224.491Z" fill="#5E55FF"/>
<path d="M496.168 231.046C483.693 218.571 483.693 205.584 496.168 193.109C483.693 205.584 470.706 205.584 458.23 193.109C470.706 205.584 470.706 218.571 458.23 231.046C470.706 218.571 483.693 218.571 496.168 231.046Z" fill="#5E55FF"/>
<path d="M451.223 539.767C426.095 514.638 426.095 488.48 451.223 463.352C426.095 488.48 399.937 488.48 374.808 463.352C399.937 488.48 399.937 514.638 374.808 539.767C399.937 514.638 426.095 514.638 451.223 539.767Z" fill="#5E55FF"/>
<path d="M232.911 108.522C268.341 73.0914 305.223 73.0914 340.654 108.522C305.223 73.0914 305.223 36.2093 340.654 0.778878C305.223 36.2093 268.341 36.2093 232.911 0.778878C268.341 36.2093 268.341 73.0914 232.911 108.522Z" fill="#FF2768"/>
</svg>
