<svg width="429" height="469" viewBox="0 0 429 469" fill="none" xmlns="http://www.w3.org/2000/svg">
<circle cx="214.992" cy="254.562" r="214.008" fill="#FF2768"/>
<circle cx="260.323" cy="353.541" r="8.09741" fill="#B11846"/>
<circle cx="219.51" cy="99.1365" r="16.5203" fill="#B11846"/>
<path d="M179.513 167.486C153.208 141.181 153.208 113.798 179.513 87.4928C153.208 113.798 125.825 113.798 99.5199 87.4928C125.825 113.798 125.825 141.181 99.5199 167.486C125.825 141.181 153.208 141.181 179.513 167.486Z" fill="#B11846"/>
<path d="M371.479 172.386C362.156 163.062 362.156 153.357 371.479 144.033C362.156 153.357 352.45 153.357 343.126 144.033C352.45 153.357 352.45 163.062 343.126 172.386C352.45 163.062 362.156 163.062 371.479 172.386Z" fill="#B11846"/>
<path d="M337.889 403.11C319.109 384.33 319.109 364.781 337.889 346.001C319.109 364.781 299.559 364.781 280.779 346.001C299.559 364.781 299.559 384.33 280.779 403.11C299.559 384.33 319.109 384.33 337.889 403.11Z" fill="#B11846"/>
<path d="M174.731 80.816C201.21 54.3367 228.775 54.3367 255.254 80.816C228.775 54.3367 228.775 26.7726 255.254 0.293389C228.775 26.7726 201.21 26.7726 174.731 0.293389C201.21 26.7726 201.21 54.3367 174.731 80.816Z" fill="#3F37C9"/>
</svg>
