<svg width="59" height="63" viewBox="0 0 59 63" fill="none" xmlns="http://www.w3.org/2000/svg">
<path d="M4.09417 29.6816L0.754583 24.4504C-0.326517 22.7601 0.400053 20.4857 2.24711 19.7632L7.96775 17.5289C9.11451 17.0829 9.89797 15.9858 9.95925 14.7326L10.2744 8.49797C10.3751 6.48217 12.2746 5.07736 14.1874 5.60361L20.105 7.22249C21.2911 7.54805 22.556 7.12883 23.3308 6.15661L27.1824 1.29998C28.4255 -0.269835 30.7715 -0.269835 32.0189 1.29998L35.8706 6.15661C36.6453 7.12883 37.9059 7.54805 39.0964 7.22249L45.014 5.60361C46.9267 5.08182 48.8219 6.48663 48.927 8.49797L49.2421 14.7326C49.3034 15.9858 50.0869 17.0785 51.2336 17.5289L56.9543 19.7632C58.8013 20.4857 59.5279 22.7601 58.4468 24.4504L55.1072 29.6816C54.4375 30.7296 54.4375 32.0854 55.1072 33.1379L58.4468 38.3691C59.5279 40.0594 58.8013 42.3338 56.9543 43.0563L51.2336 45.2906C50.0869 45.7366 49.3034 46.8337 49.2421 48.0869L48.927 54.3215C48.8263 56.3373 46.9267 57.7421 45.014 57.2159L39.0964 55.597C37.9103 55.2715 36.6453 55.6907 35.8706 56.6629L32.0189 61.5195C30.7759 63.0893 28.4299 63.0893 27.1824 61.5195L23.3308 56.6629C22.556 55.6907 21.2955 55.2715 20.105 55.597L14.1874 57.2159C12.2746 57.7377 10.3794 56.3329 10.2744 54.3215L9.95925 48.0869C9.89797 46.8337 9.11451 45.741 7.96775 45.2906L2.24711 43.0563C0.400053 42.3338 -0.326517 40.0594 0.754583 38.3691L4.09417 33.1379C4.76384 32.0899 4.76384 30.7341 4.09417 29.6816Z" fill="#FF2768"/>
<path d="M26.8924 34.1192L21.4716 28.7003L18.7622 31.4097L26.8924 39.5399L40.4395 25.9909L37.732 23.2795L26.8924 34.1192Z" fill="white"/>
</svg>
