<svg width="60" height="64" viewBox="0 0 60 64" fill="none" xmlns="http://www.w3.org/2000/svg">
<path d="M4.44818 30.261L1.10859 25.0298C0.0274871 23.3395 0.754056 21.0651 2.60112 20.3426L8.32176 18.1083C9.46851 17.6623 10.252 16.5652 10.3133 15.3121L10.6284 9.07737C10.7291 7.06158 12.6286 5.65677 14.5414 6.18302L20.459 7.80189C21.6451 8.12745 22.91 7.70824 23.6848 6.73602L27.5364 1.87939C28.7795 0.309571 31.1255 0.309571 32.3729 1.87939L36.2246 6.73602C36.9994 7.70824 38.2599 8.12745 39.4504 7.80189L45.368 6.18302C47.2807 5.66123 49.176 7.06604 49.281 9.07737L49.5961 15.3121C49.6574 16.5652 50.4409 17.6579 51.5876 18.1083L57.3083 20.3426C59.1553 21.0651 59.8819 23.3395 58.8008 25.0298L55.4612 30.261C54.7915 31.3091 54.7915 32.6648 55.4612 33.7173L58.8008 38.9485C59.8819 40.6388 59.1553 42.9132 57.3083 43.6357L51.5876 45.87C50.4409 46.316 49.6574 47.4131 49.5961 48.6663L49.281 54.9009C49.1803 56.9167 47.2807 58.3215 45.368 57.7953L39.4504 56.1764C38.2643 55.8509 36.9994 56.2701 36.2246 57.2423L32.3729 62.0989C31.1299 63.6687 28.7839 63.6687 27.5364 62.0989L23.6848 57.2423C22.91 56.2701 21.6495 55.8509 20.459 56.1764L14.5414 57.7953C12.6286 58.3171 10.7334 56.9123 10.6284 54.9009L10.3133 48.6663C10.252 47.4131 9.46851 46.3205 8.32176 45.87L2.60112 43.6357C0.754056 42.9132 0.0274871 40.6388 1.10859 38.9485L4.44818 33.7173C5.11785 32.6693 5.11785 31.3135 4.44818 30.261Z" fill="#FF2768"/>
</svg>
