<svg width="577" height="608" viewBox="0 0 577 608" fill="none" xmlns="http://www.w3.org/2000/svg">
<rect x="0.28418" y="0.425781" width="575.872" height="606.824" rx="30" fill="#3F37C9"/>
<path d="M552.959 574.469C516.514 538.024 516.514 500.086 552.959 463.64C516.514 500.086 478.576 500.086 442.131 463.64C478.576 500.086 478.576 538.024 442.131 574.469C478.576 538.024 516.514 538.024 552.959 574.469Z" fill="#5E55FF"/>
<path d="M93.6181 483.841C79.1574 469.381 79.1574 454.328 93.6181 439.867C79.1574 454.328 64.1043 454.328 49.6436 439.867C64.1043 454.328 64.1043 469.381 49.6436 483.841C64.1043 469.381 79.1574 469.381 93.6181 483.841Z" fill="#5E55FF"/>
<circle cx="115.606" cy="32.9028" r="8.53827" fill="#5E55FF"/>
<circle cx="512.004" cy="86.8525" r="3.53609" fill="#5E55FF"/>
<circle cx="438.663" cy="545.435" r="3.53609" fill="#5E55FF"/>
<path d="M90.5359 98.4435C69.3726 77.2802 69.3726 55.2498 90.5359 34.0865C69.3726 55.2498 47.3422 55.2498 26.1789 34.0865C47.3422 55.2498 47.3422 77.2802 26.1789 98.4435C47.3422 77.2802 69.3726 77.2802 90.5359 98.4435Z" fill="#5E55FF"/>
<path d="M529.466 61.7375C518.64 50.9121 518.64 39.6433 529.466 28.8179C518.64 39.6433 507.371 39.6433 496.546 28.8179C507.371 39.6433 507.371 50.9121 496.546 61.7375C507.371 50.9121 518.64 50.9121 529.466 61.7375Z" fill="#5E55FF"/>
</svg>
