<svg width="18" height="21" viewBox="0 0 18 21" fill="none" xmlns="http://www.w3.org/2000/svg">
<path d="M9.06775 0.0098114C7.724 0.0098114 6.43529 0.543614 5.48511 1.49379C4.53494 2.44396 4.00113 3.73268 4.00113 5.07643C4.00113 6.42018 4.53494 7.70889 5.48511 8.65906C6.43529 9.60924 7.724 10.143 9.06775 10.143C10.4115 10.143 11.7002 9.60924 12.6504 8.65906C13.6006 7.70889 14.1344 6.42018 14.1344 5.07643C14.1344 3.73268 13.6006 2.44396 12.6504 1.49379C11.7002 0.543614 10.4115 0.0098114 9.06775 0.0098114ZM5.26779 5.07643C5.26779 4.06861 5.66814 3.10208 6.38077 2.38945C7.0934 1.67682 8.05994 1.27647 9.06775 1.27647C10.0756 1.27647 11.0421 1.67682 11.7547 2.38945C12.4674 3.10208 12.8677 4.06861 12.8677 5.07643C12.8677 6.08424 12.4674 7.05077 11.7547 7.76341C11.0421 8.47604 10.0756 8.87639 9.06775 8.87639C8.05994 8.87639 7.0934 8.47604 6.38077 7.76341C5.66814 7.05077 5.26779 6.08424 5.26779 5.07643ZM2.74588 11.4097C2.41224 11.4082 2.0816 11.4726 1.77292 11.5992C1.46425 11.7259 1.18363 11.9123 0.947187 12.1476C0.710738 12.383 0.523116 12.6628 0.395093 12.9709C0.26707 13.279 0.201168 13.6094 0.201172 13.943C0.201172 16.0849 1.25629 17.6999 2.90548 18.7525C4.52933 19.7873 6.71811 20.2763 9.06775 20.2763C11.4174 20.2763 13.6062 19.7873 15.23 18.7525C16.8792 17.7012 17.9343 16.0836 17.9343 13.943C17.9343 13.2711 17.6674 12.6268 17.1923 12.1517C16.7172 11.6766 16.0729 11.4097 15.401 11.4097H2.74588ZM1.46783 13.943C1.46783 13.2425 2.03529 12.6763 2.74588 12.6763H15.401C15.737 12.6763 16.0591 12.8098 16.2967 13.0473C16.5342 13.2849 16.6677 13.6071 16.6677 13.943C16.6677 15.6011 15.8798 16.836 14.5486 17.6834C13.1932 18.5486 11.2654 19.0096 9.06775 19.0096C6.8701 19.0096 4.94226 18.5486 3.58694 17.6834C2.25695 16.8348 1.46783 15.6023 1.46783 13.943Z" fill="white"/>
</svg>
